<svg id="레이어_1" data-name="레이어 1" xmlns="http://www.w3.org/2000/svg" xmlns:xlink="http://www.w3.org/1999/xlink" viewBox="0 0 947.65 368.5"><defs><style>.cls-1{fill:none;}.cls-2{clip-path:url(#clip-path);}.cls-3{fill:#00578a;}</style><clipPath id="clip-path" transform="translate(0 0)"><rect class="cls-1" width="947.65" height="368.5"/></clipPath></defs><title>Vector Smart Object</title><g class="cls-2"><path class="cls-3" d="M425.7,19.3a34.73,34.73,0,0,1,29.37,15.85s5.09,7.59,8.63,9.56,8.67,3.1,12.17,2.36,5.54-1.43,3.86-7.24C473,16.35,451.62,0,425.7,0c-31.46,0-56.15,24.25-56.15,55.93s24.69,55.91,56.15,55.91c25.18,0,44.83-14.32,53.11-37.45,2.52-6.7.44-7.61.44-7.61s-2.06-2.87-10.51-1a19.91,19.91,0,0,0-12.13,8.6A35.84,35.84,0,0,1,425.7,92.5c-20,0-35.93-16.81-35.93-36.56,0-20,15.95-36.63,35.93-36.63" transform="translate(0 0)"/><path class="cls-3" d="M245.4,55.93C245.4,24.25,220.8,0,189.49,0s-55.94,24.25-55.94,55.93,24.58,55.91,55.94,55.91S245.4,87.57,245.4,55.93m-91.71,0c0-20,15.87-36.63,35.8-36.63s35.75,16.61,35.75,36.63c0,19.76-15.87,36.57-35.75,36.57s-35.8-16.81-35.8-36.57" transform="translate(0 0)"/><path class="cls-3" d="M547.42,111.84c31.34,0,55.94-24.28,55.94-55.91S578.76,0,547.42,0s-56,24.25-56,55.93,24.65,55.91,56,55.91m0-92.54c19.9,0,35.77,16.6,35.77,36.63,0,19.76-15.87,36.56-35.77,36.56s-35.79-16.81-35.79-36.56c0-20,15.86-36.63,35.79-36.63" transform="translate(0 0)"/><path class="cls-3" d="M284.53,65.48l48,.61c6.42.29,8.1,3.41,5.82,9-4.1,10.23-18.36,18.35-30.78,18.23-15.26-.2-22.93-7.92-28.72-14s-16.64-6.24-20.1-4.92-1.86,6.58-.41,9.39c9.2,17.91,29.25,27.78,48.22,28,20.19.23,38.32-9.52,48.88-26.63s6-37.89-18.14-38.19l-54.63-.66c-8-.1-8.76-5.13-6.45-9.92,5.15-10.52,17.64-18.11,32-17.94s22.19,8.65,27,13.31c5.06,5,15.72,6.55,20.37,4.22,2.38-1.19,2.23-4.42.08-8.51C346.53,10,327.15.31,307.35.05a55.87,55.87,0,0,0-47.61,25.52c-9.57,14.87-9,39.52,24.78,39.91" transform="translate(0 0)"/><path class="cls-3" d="M27,155c3.56-.36,3.76-4.76,3.76-4.76V99.43A56.46,56.46,0,0,0,66.4,111.84c31.33,0,56-24.28,56-55.91S97.73,0,66.4,0,10.48,24.25,10.48,55.93v74s-1,9.83,3.73,16.71C17.49,151.46,22,154.86,27,155M66.42,19.27c19.83,0,35.93,16.36,35.93,36.51S86.25,92.32,66.42,92.32,30.52,76,30.52,55.78s16.07-36.51,35.9-36.51" transform="translate(0 0)"/><polygon class="cls-3" points="453.76 320.6 453.76 217.22 336.99 217.22 336.99 236.06 430.17 236.06 430.17 265.08 336.99 265.08 336.99 283.54 430.17 283.54 430.17 320.6 453.76 320.6"/><path class="cls-3" d="M85.72,313.68H136.4V295h-22v-59H134.8V217.22H10.48v18.84h20.6v59H8.91v18.66H61.75v32H0v18.84H145.69V345.67h-60ZM54.84,236.06h36v59h-36Z" transform="translate(0 0)"/><rect class="cls-3" x="162.25" y="345.68" width="145.69" height="18.84"/><polygon class="cls-3" points="396 302.74 372.17 302.74 372.17 345.47 324.49 345.47 324.49 364.51 470.18 364.51 470.18 345.47 396 345.47 396 302.74"/><path class="cls-3" d="M253.09,254.72a47.43,47.43,0,0,1-4.67-19.11v-20H223v20a47.33,47.33,0,0,1-4.67,19.11c-4.34,9.07-11.94,20.22-30.93,29.94a204.71,204.71,0,0,1-24.52,10.23l14.27,15.74s21.35-7.69,34-16.17c10.77-7.19,21.36-18.23,24.53-23.24,3.17,5,14.59,16.78,24.55,23.24,12.78,8.33,34,16.17,34,16.17l14.27-15.74A204.73,204.73,0,0,1,284,284.66c-19-9.73-26.61-20.88-30.93-29.94" transform="translate(0 0)"/><path class="cls-3" d="M634.28,290.38c0,42.66-26.74,78.12-71.42,78.12s-71.4-35.46-71.4-78.12,26.72-78,71.4-78,71.42,35.5,71.42,78m-116.72,0c0,28.6,13.35,56.83,45.3,56.83s45.32-28.23,45.32-56.83-13.37-56.72-45.32-56.72-45.3,28.17-45.3,56.72" transform="translate(0 0)"/><path class="cls-3" d="M737.61,348.26c-11.07,13.57-24.43,19.62-41.74,19.62-27.36,0-47-16.28-47-44.26,0-21.13,17.11-34.42,34.24-43.14-7.73-9.93-15-19.64-15-32.64,0-21.52,16.28-35.5,36.53-35.5,19.22,0,37.18,11.9,37.18,35.71,0,17.54-12.54,30-26.93,37.78l23.17,28a79,79,0,0,0,4.56-20h20.88c-1.45,12.89-5,26.12-11.67,36.5L780.49,365H751.16Zm-42-52.12c-8.77,5.35-23,10.1-23,27.92,0,16.07,10.23,25,24,25,17.33,0,23.6-10.68,28.19-16.69Zm-6.29-49.6c0,9.89,8.13,17.39,13.6,24.83,9-6,17.52-12.31,17.52-24.19,0-9.77-6-17.1-15.25-17.1-8.76,0-15.87,6.5-15.87,16.46" transform="translate(0 0)"/><polygon class="cls-3" points="792.97 215.89 829.66 215.89 870.8 332.64 871.22 332.64 911.31 215.89 947.65 215.89 947.65 364.95 922.79 364.95 922.79 249.92 922.38 249.92 881.03 364.95 859.52 364.95 818.15 249.92 817.77 249.92 817.77 364.95 792.97 364.95 792.97 215.89"/></g></svg>